<svg width="71" height="17" viewBox="0 0 71 17" fill="none" xmlns="http://www.w3.org/2000/svg">
<path d="M18.7271 14.2669C18.7563 14.6146 18.8952 14.9624 19.1437 15.3102C19.3922 15.658 19.5165 15.9153 19.5165 16.0823V16.1657C19.5165 16.43 19.3411 16.5622 18.9902 16.5622H14.6045C14.2536 16.5622 14.0782 16.43 14.0782 16.1657V16.0823C14.0782 15.9292 14.2171 15.6788 14.4948 15.3311C14.7726 14.9833 14.8968 14.6285 14.8676 14.2669L14.6483 10.5734C14.5898 9.5301 14.4436 8.7928 14.2097 8.36156C13.9758 7.9164 13.6177 7.69382 13.1352 7.69382C12.6967 7.69382 12.3604 7.87467 12.1265 8.23636C11.8926 8.59805 11.7756 9.07798 11.7756 9.67616C11.8195 9.9683 11.8414 10.2604 11.8414 10.5526V14.2669C11.8414 14.6146 11.973 14.9624 12.2362 15.3102C12.4993 15.658 12.6309 15.9153 12.6309 16.0823V16.1657C12.6309 16.43 12.4554 16.5622 12.1046 16.5622H7.74076C7.3899 16.5622 7.21447 16.43 7.21447 16.1657V16.0823C7.21447 15.9153 7.33873 15.658 7.58726 15.3102C7.8504 14.9624 7.98198 14.6146 7.98198 14.2669V10.3022C7.98198 8.56327 7.48492 7.69382 6.49082 7.69382C6.00839 7.69382 5.64291 7.87467 5.39438 8.23636C5.14586 8.59805 5.02159 9.07798 5.02159 9.67616V14.2669C5.02159 14.6146 5.1824 14.9624 5.50403 15.3102C5.82565 15.658 5.98646 15.9153 5.98646 16.0823V16.1657C5.98646 16.43 5.81103 16.5622 5.46017 16.5622H0.723557C0.372697 16.5622 0.197267 16.43 0.197267 16.1657V16.0823C0.197267 15.9153 0.358078 15.658 0.6797 15.3102C1.00132 14.9624 1.16213 14.6146 1.16213 14.2669V10.1561C1.16213 9.87788 1.0598 9.64139 0.85513 9.44663C0.665081 9.23796 0.475032 9.05712 0.284982 8.90409C0.0949331 8.75107 -9.15527e-05 8.59109 -9.15527e-05 8.42416V8.36156C-9.15527e-05 8.18071 0.175339 8.00682 0.526199 7.83989L3.81551 6.40008C4.07866 6.28879 4.28333 6.28879 4.42952 6.40008C4.57571 6.51137 4.6488 6.6783 4.6488 6.90088V7.65209C5.32129 6.76177 6.29346 6.31661 7.56533 6.31661C9.18806 6.31661 10.3868 6.88697 11.1616 8.02769C11.454 7.48515 11.8853 7.06782 12.4554 6.77568C13.0256 6.46964 13.6761 6.31661 14.4071 6.31661C15.4743 6.31661 16.3807 6.65744 17.1263 7.33909C17.8865 8.02073 18.325 9.14058 18.442 10.6986L18.7271 14.2669Z" fill="#404040"/>
<path d="M30.7423 14.2669C30.7862 14.6007 30.8666 14.872 30.9835 15.0807C31.1151 15.2754 31.2394 15.4006 31.3563 15.4563C31.4879 15.5119 31.6048 15.5815 31.7072 15.6649C31.8095 15.7484 31.8607 15.8527 31.8607 15.9779C31.8607 16.437 31.0347 16.6665 29.3827 16.6665C28.7102 16.6665 28.2059 16.59 27.8696 16.437C27.548 16.284 27.3434 16.0266 27.2556 15.6649C26.7001 16.3883 25.7718 16.75 24.4707 16.75C23.2427 16.75 22.2413 16.4787 21.4664 15.9362C20.7062 15.3937 20.3262 14.6077 20.3262 13.5783C20.3262 12.5766 20.7062 11.7976 21.4664 11.2412C22.2266 10.6708 23.1623 10.3856 24.2733 10.3856C25.1359 10.3856 25.8741 10.5595 26.4881 10.9073V10.8447C26.3419 9.4675 26.1738 8.53545 25.9838 8.04855C25.8083 7.56166 25.4575 7.31822 24.9312 7.31822C24.5949 7.31822 24.3245 7.46429 24.1198 7.75642C23.9152 8.04856 23.7617 8.36851 23.6593 8.71629C23.5716 9.06407 23.3962 9.38403 23.133 9.67616C22.8699 9.9683 22.519 10.1144 22.0805 10.1144C21.6273 10.1144 21.2545 9.98916 20.9621 9.73876C20.6843 9.48836 20.5454 9.16145 20.5454 8.75803C20.5454 7.95118 20.9694 7.34604 21.8173 6.94262C22.6652 6.52528 23.7032 6.31661 24.9312 6.31661C26.3931 6.31661 27.5992 6.69917 28.5494 7.46429C29.5143 8.21549 30.0844 9.23796 30.2599 10.5317L30.7423 14.2669ZM25.6768 15.6858C26.013 15.6858 26.2835 15.5328 26.4881 15.2267C26.7074 14.9207 26.8171 14.5729 26.8171 14.1834L26.7293 13.2235C26.5832 12.0689 26.13 11.4916 25.3698 11.4916C25.0335 11.4916 24.7631 11.6237 24.5584 11.888C24.3537 12.1384 24.2514 12.4793 24.2514 12.9105C24.2514 13.6895 24.3757 14.3503 24.6242 14.8929C24.8873 15.4215 25.2382 15.6858 25.6768 15.6858Z" fill="#404040"/>
<path d="M44.3114 14.2669C44.3407 14.6146 44.4795 14.9624 44.7281 15.3102C44.9766 15.6441 45.1008 15.9014 45.1008 16.0823V16.1657C45.1008 16.43 44.9254 16.5622 44.5746 16.5622H40.1888C39.8379 16.5622 39.6625 16.43 39.6625 16.1657V16.0823C39.6625 15.9153 39.8014 15.658 40.0792 15.3102C40.3569 14.9624 40.4812 14.6146 40.452 14.2669L40.2327 10.5317C40.1742 9.50227 40.028 8.77194 39.7941 8.34069C39.5748 7.90944 39.2166 7.69382 38.7196 7.69382C38.2518 7.69382 37.8936 7.87467 37.6451 8.23636C37.4112 8.59805 37.2942 9.09189 37.2942 9.7179V14.2669C37.2942 14.6146 37.455 14.9624 37.7766 15.3102C38.0983 15.658 38.2591 15.9153 38.2591 16.0823V16.1657C38.2591 16.43 38.0836 16.5622 37.7328 16.5622H32.9962C32.6453 16.5622 32.4699 16.43 32.4699 16.1657V16.0823C32.4699 15.9153 32.6307 15.658 32.9523 15.3102C33.2739 14.9624 33.4347 14.6146 33.4347 14.2669V10.1561C33.4347 9.86396 33.3397 9.62052 33.1497 9.42576C32.9596 9.21709 32.7623 9.0432 32.5576 8.90409C32.3675 8.75107 32.2725 8.59109 32.2725 8.42416V8.36156C32.2725 8.18071 32.448 8.00682 32.7988 7.83989L35.8688 6.40008C36.1466 6.28879 36.3513 6.28879 36.4828 6.40008C36.629 6.49746 36.7021 6.66439 36.7021 6.90088V7.88162C37.3161 6.83828 38.3614 6.31661 39.8379 6.31661C40.9344 6.31661 41.8773 6.65744 42.6668 7.33909C43.4562 8.02073 43.9094 9.12667 44.0263 10.6569L44.3114 14.2669Z" fill="#404040"/>
<path d="M57.0347 14.2669C57.0347 14.6146 57.1809 14.9624 57.4733 15.3102C57.7657 15.6441 57.9119 15.8945 57.9119 16.0614V16.1449C57.9119 16.4092 57.7437 16.5413 57.4075 16.5413H54.2717C53.8916 16.5413 53.7015 16.3674 53.7015 16.0197V15.8319C53.0144 16.444 52.1227 16.75 51.0262 16.75C49.6082 16.75 48.3875 16.2909 47.3641 15.3728C46.3554 14.4407 45.851 13.1609 45.851 11.5333C45.851 10.017 46.3627 8.77194 47.3861 7.79815C48.4094 6.81046 49.6301 6.31661 51.0482 6.31661C51.9399 6.31661 52.6928 6.51137 53.3068 6.90088V4.1256C53.3068 3.84738 53.2118 3.61089 53.0218 3.41613C52.8317 3.20746 52.6343 3.03357 52.4297 2.89446C52.2396 2.74144 52.1446 2.58146 52.1446 2.41453V2.35193C52.1446 2.08761 52.3127 1.90677 52.649 1.80939L56.0699 0.828652C56.7131 0.633895 57.0347 0.800829 57.0347 1.32945V14.2669ZM51.9034 15.7275C52.2981 15.7414 52.627 15.5884 52.8902 15.2685C53.1679 14.9485 53.3068 14.5173 53.3068 13.9747V9.94743C53.3068 9.27969 53.1022 8.68151 52.6928 8.15289C52.2981 7.61035 51.8449 7.33909 51.3332 7.33909C50.2514 7.33909 49.674 8.19462 49.6009 9.9057C49.5716 10.5595 49.6301 11.3177 49.7763 12.1802C49.9371 13.0427 50.2003 13.8495 50.5657 14.6007C50.9458 15.338 51.3917 15.7136 51.9034 15.7275Z" fill="#404040"/>
<path d="M70.057 14.246C70.057 14.6216 70.1008 14.9068 70.1885 15.1015C70.2909 15.2963 70.4005 15.4076 70.5175 15.4354C70.649 15.4493 70.7587 15.498 70.8464 15.5815C70.9487 15.6649 70.9999 15.7971 70.9999 15.9779C70.9999 16.2422 70.8099 16.4231 70.4298 16.5205C70.0643 16.6178 69.5014 16.6665 68.7412 16.6665C68.0541 16.6665 67.5498 16.5761 67.2282 16.3953C66.9212 16.2144 66.7384 15.9014 66.6799 15.4563C66.0952 16.3188 65.0645 16.75 63.588 16.75C62.4185 16.75 61.439 16.3883 60.6495 15.6649C59.8747 14.9276 59.4873 13.9191 59.4873 12.6392V9.15449C59.4873 8.7928 59.3411 8.44502 59.0487 8.11116C58.7563 7.77729 58.6102 7.5408 58.6102 7.40168V7.31822C58.6102 7.03999 58.7783 6.88002 59.1145 6.83828L62.3819 6.42095C63.069 6.33748 63.4126 6.47659 63.4126 6.83828L63.3468 13.0148C63.3321 13.8495 63.4345 14.4547 63.6538 14.8303C63.8877 15.1919 64.2532 15.3728 64.7502 15.3728C65.1595 15.3728 65.5031 15.185 65.7809 14.8094C66.0586 14.4199 66.1975 13.9121 66.1975 13.2861V9.15449C66.1975 8.7928 66.0513 8.44502 65.7589 8.11116C65.4665 7.77729 65.3204 7.5408 65.3204 7.40168V7.31822C65.3204 7.03999 65.4885 6.88002 65.8247 6.83828L69.0921 6.42095C69.7353 6.33748 70.057 6.47659 70.057 6.83828V14.246Z" fill="#404040"/>
</svg>
